<?xml version="1.0" standalone="no"?>
<!DOCTYPE svg PUBLIC "-//W3C//DTD SVG 20010904//EN"
 "http://www.w3.org/TR/2001/REC-SVG-20010904/DTD/svg10.dtd">
<svg version="1.0" xmlns="http://www.w3.org/2000/svg"
 width="15748.000000pt" height="15748.000000pt" viewBox="0 0 15748.000000 15748.000000"
 preserveAspectRatio="xMidYMid meet">

<g transform="translate(0.000000,15748.000000) scale(0.100000,-0.100000)"
fill="#000000" stroke="none">
<path d="M136140 115083 l0 -697 57 -58 57 -58 3346 0 3345 1 745 691 c410
379 777 719 815 754 l70 64 -4217 0 -4218 0 0 -697z"/>
<path d="M148209 113447 c-1053 -1057 -2331 -2339 -2838 -2849 l-922 -927 43
-11 c959 -247 1839 -669 2633 -1265 1530 -1148 2581 -2871 2840 -4660 48 -330
59 -495 59 -875 0 -369 -10 -518 -55 -824 -164 -1127 -679 -2163 -1494 -3004
-985 -1018 -2223 -1650 -3605 -1841 -515 -72 -1145 -73 -1670 -5 -1967 255
-3726 1384 -4712 3024 -413 686 -675 1425 -800 2255 -23 156 -27 285 -19 655
5 229 -16 322 -97 428 l-24 32 -705 0 -704 0 4 -697 c4 -799 6 -811 103 -1196
182 -721 699 -1848 1199 -2617 365 -560 948 -1201 1528 -1678 1047 -861 2316
-1442 3648 -1672 695 -119 1443 -146 2129 -74 1767 183 3423 959 4684 2194
688 674 1188 1417 1543 2290 115 284 252 726 322 1040 122 546 166 969 165
1585 0 425 -11 592 -59 970 -283 2201 -1475 4308 -3275 5786 -182 149 -500
383 -697 514 -100 66 -182 123 -182 127 -1 5 4120 4179 4878 4941 l276 277
-1140 0 -1140 0 -1916 -1923z"/>
<path d="M149562 115290 l-123 -16 -107 -106 c-2244 -2209 -5159 -5085 -5163
-5093 -6 -10 -31 -227 -26 -231 2 -1 5055 4933 5443 5317 128 126 148 149 125
148 -14 -1 -81 -9 -149 -19z"/>
<path d="M144015 105640 c-747 -71 -1446 -416 -1937 -956 -469 -517 -726
-1130 -779 -1856 -32 -450 80 -1001 295 -1443 151 -312 325 -554 576 -805 526
-527 1171 -816 1938 -871 554 -39 1203 124 1701 428 755 461 1253 1208 1398
2097 24 146 26 186 26 441 1 253 -2 295 -25 440 -211 1311 -1194 2295 -2498
2500 -183 29 -525 41 -695 25z m459 -1826 c346 -56 658 -290 820 -614 311
-618 16 -1360 -637 -1600 -190 -70 -412 -86 -617 -44 -429 88 -776 417 -886
841 -35 133 -44 338 -20 475 87 514 507 906 1026 957 98 10 188 6 314 -15z"/>
<path d="M144163 103376 c-167 -32 -276 -88 -389 -201 -81 -81 -131 -151 -99
-139 8 3 13 9 10 13 -8 14 94 129 157 176 74 56 196 118 221 111 9 -2 15 -1
12 4 -8 13 104 30 200 30 50 0 118 -7 150 -15 79 -20 165 -55 165 -67 0 -5 4
-7 9 -4 25 16 202 -148 259 -240 41 -64 85 -172 78 -190 -3 -7 -1 -14 4 -16
18 -6 30 -154 20 -235 -10 -77 -40 -182 -67 -235 -7 -16 -11 -28 -9 -28 19 0
69 149 86 255 20 125 -11 281 -82 418 -57 109 -174 226 -284 284 -141 74 -307
104 -441 79z"/>
<path d="M144220 103218 c41 -45 50 -53 50 -45 0 2 -21 23 -47 47 l-48 45 45
-47z"/>
<path d="M144612 103180 c0 -19 2 -27 5 -17 2 9 2 25 0 35 -3 9 -5 1 -5 -18z"/>
<path d="M144280 103146 c0 -2 8 -10 18 -17 15 -13 16 -12 3 4 -13 16 -21 21
-21 13z"/>
<path d="M144613 103040 c0 -25 2 -35 4 -22 2 12 2 32 0 45 -2 12 -4 2 -4 -23z"/>
<path d="M143753 103053 c9 -2 25 -2 35 0 9 3 1 5 -18 5 -19 0 -27 -2 -17 -5z"/>
<path d="M143895 103049 c51 -10 92 -10 50 1 -16 4 -43 8 -60 8 -25 0 -24 -2
10 -9z"/>
<path d="M143988 103033 c7 -3 16 -2 19 1 4 3 -2 6 -13 5 -11 0 -14 -3 -6 -6z"/>
<path d="M144030 103020 c8 -5 20 -10 25 -10 6 0 3 5 -5 10 -8 5 -19 10 -25
10 -5 0 -3 -5 5 -10z"/>
<path d="M143625 102968 c-13 -29 -26 -66 -30 -83 -3 -16 5 -2 19 32 13 34 30
71 36 82 6 12 8 21 5 21 -3 0 -17 -24 -30 -52z"/>
<path d="M144071 103005 c9 -9 79 -35 79 -30 0 3 -16 13 -35 21 -34 14 -52 18
-44 9z"/>
<path d="M144601 102954 c0 -11 3 -14 6 -6 3 7 2 16 -1 19 -3 4 -6 -2 -5 -13z"/>
<path d="M144190 102947 c0 -2 19 -17 43 -32 23 -16 37 -22 30 -14 -12 15 -73
53 -73 46z"/>
<path d="M144299 102858 l24 -28 -61 0 c-60 0 -62 -1 -103 -45 -42 -45 -42
-47 -40 -113 l2 -67 61 -60 c34 -33 56 -52 49 -42 -12 16 -9 17 42 17 54 0 58
2 101 48 44 46 46 49 46 112 l0 66 -72 69 c-40 39 -62 58 -49 43z"/>
<path d="M144561 102838 c-10 -30 -9 -31 4 -14 8 11 15 26 15 33 0 22 -8 14
-19 -19z"/>
<path d="M143573 102814 c-14 -67 -7 -264 11 -309 12 -28 15 -32 11 -12 -3 16
-1 35 6 43 10 12 9 13 -4 9 -22 -9 -33 121 -18 222 12 80 8 112 -6 47z"/>
<path d="M144500 102720 c-6 -11 -8 -20 -6 -20 3 0 10 9 16 20 6 11 8 20 6 20
-3 0 -10 -9 -16 -20z"/>
<path d="M144079 102703 c-13 -16 -12 -17 4 -4 16 13 21 21 13 21 -2 0 -10 -8
-17 -17z"/>
<path d="M144784 102678 l-19 -23 23 19 c21 18 27 26 19 26 -2 0 -12 -10 -23
-22z"/>
<path d="M143704 102658 l-29 -33 33 29 c17 17 32 31 32 33 0 8 -8 1 -36 -29z"/>
<path d="M144449 102653 c-13 -16 -12 -17 4 -4 16 13 21 21 13 21 -2 0 -10 -8
-17 -17z"/>
<path d="M143619 102573 c-13 -16 -12 -17 4 -4 16 13 21 21 13 21 -2 0 -10 -8
-17 -17z"/>
<path d="M144111 102574 c0 -11 3 -14 6 -6 3 7 2 16 -1 19 -3 4 -6 -2 -5 -13z"/>
<path d="M144468 102533 c7 -3 16 -2 19 1 4 3 -2 6 -13 5 -11 0 -14 -3 -6 -6z"/>
<path d="M143952 102509 c-20 -52 -21 -71 -2 -30 11 24 18 46 15 49 -2 3 -8
-6 -13 -19z"/>
<path d="M144368 102523 c12 -2 30 -2 40 0 9 3 -1 5 -23 4 -22 0 -30 -2 -17
-4z"/>
<path d="M144122 102490 c0 -14 2 -19 5 -12 2 6 2 18 0 25 -3 6 -5 1 -5 -13z"/>
<path d="M143606 102437 c3 -16 25 -62 48 -104 45 -85 165 -212 233 -251 41
-22 41 -22 36 -1 -4 13 -8 16 -13 9 -4 -7 -23 2 -56 28 -85 67 -161 159 -209
256 -25 50 -43 78 -39 63z"/>
<path d="M144290 102446 c0 -3 9 -10 20 -16 11 -6 20 -8 20 -6 0 3 -9 10 -20
16 -11 6 -20 8 -20 6z"/>
<path d="M143912 102375 c0 -16 2 -22 5 -12 2 9 2 23 0 30 -3 6 -5 -1 -5 -18z"/>
<path d="M144415 102371 c13 -11 77 -32 82 -27 2 2 -17 11 -44 20 -26 9 -43
12 -38 7z"/>
<path d="M143902 102310 c0 -19 2 -27 5 -17 2 9 2 25 0 35 -3 9 -5 1 -5 -18z"/>
<path d="M144548 102323 c6 -2 18 -2 25 0 6 3 1 5 -13 5 -14 0 -19 -2 -12 -5z"/>
<path d="M144855 102320 c10 -17 -70 -115 -142 -175 -36 -30 -102 -73 -147
-95 -45 -23 -70 -38 -56 -34 118 33 298 178 356 287 13 24 13 27 -1 27 -9 0
-13 -5 -10 -10z"/>
<path d="M144608 102313 c12 -2 30 -2 40 0 9 3 -1 5 -23 4 -22 0 -30 -2 -17
-4z"/>
<path d="M144793 102313 c9 -2 23 -2 30 0 6 3 -1 5 -18 5 -16 0 -22 -2 -12 -5z"/>
<path d="M144693 102303 c9 -2 23 -2 30 0 6 3 -1 5 -18 5 -16 0 -22 -2 -12 -5z"/>
<path d="M144220 102221 c5 -11 15 -23 21 -27 6 -3 3 5 -6 20 -20 30 -30 35
-15 7z"/>
<path d="M143902 102150 c0 -19 2 -27 5 -17 2 9 2 25 0 35 -3 9 -5 1 -5 -18z"/>
<path d="M144268 102153 c11 -16 30 -37 43 -48 12 -11 5 1 -16 28 -43 52 -57
63 -27 20z"/>
<path d="M143964 102042 c3 -6 46 -23 94 -39 77 -24 102 -27 217 -27 94 1 141
5 170 17 34 13 36 16 15 16 -15 1 -32 7 -40 14 -12 10 -12 9 -1 -5 11 -15 9
-18 -16 -25 -15 -4 -80 -8 -143 -7 -111 1 -175 14 -284 59 -13 6 -17 5 -12 -3z"/>
<path d="M10480 92242 c0 -105 -33 -1362 -45 -1707 -22 -654 -62 -1576 -104
-2420 -10 -198 -17 -362 -15 -364 1 -2 77 1 168 5 l166 9 2423 2235 2424 2235
-196 7 c-108 4 -1237 9 -2508 12 -2191 5 -2313 5 -2313 -12z"/>
<path d="M25400 92244 c-1482 -7 -3889 -12 -5347 -13 l-2653 0 -397 -367
c-219 -201 -1297 -1195 -2395 -2207 -1098 -1013 -1996 -1842 -1995 -1843 5 -6
3493 38 4117 51 399 8 907 15 1129 15 l403 0 -6 -132 c-4 -73 -47 -1535 -97
-3248 l-90 -3115 -164 -3639 -165 -3639 -175 -2576 c-96 -1417 -177 -2609
-181 -2650 l-6 -74 664 7 c364 3 881 10 1148 15 314 6 566 5 715 -1 127 -6
908 -12 1738 -15 l1507 -3 0 237 c0 131 4 297 10 368 22 299 55 1007 85 1805
8 223 22 855 30 1405 15 954 26 1265 230 6810 l215 5810 77 1319 78 1319 1005
-6 c1149 -7 1765 -21 2865 -62 594 -23 1871 -84 2098 -100 49 -3 77 -2 77 5 0
6 22 8 58 5 31 -2 99 -7 150 -10 l92 -5 0 453 c0 917 46 2046 150 3687 11 173
22 336 25 363 l6 47 -1153 -2 c-634 0 -2366 -7 -3848 -14z"/>
<path d="M134245 92210 c-1791 -83 -3512 -478 -5016 -1153 -1367 -613 -2627
-1558 -3600 -2702 -1074 -1261 -1867 -2850 -2324 -4660 -277 -1098 -414 -2188
-432 -3430 -22 -1620 181 -3117 612 -4515 403 -1303 978 -2350 1824 -3315 155
-177 632 -651 816 -811 1219 -1060 2466 -1746 4000 -2200 1333 -395 2707 -570
4170 -534 1150 29 2391 138 3550 311 511 76 1577 262 1605 279 6 4 40 234 75
511 136 1074 362 2619 489 3334 8 44 13 81 11 83 -1 1 -114 -32 -251 -73
-2881 -881 -5118 -1116 -6984 -736 -1092 223 -1992 642 -2841 1323 -603 483
-1104 1066 -1478 1718 -308 536 -569 1200 -745 1894 -343 1347 -396 2944 -145
4346 209 1168 616 2271 1182 3200 620 1018 1498 1896 2472 2472 1253 740 2904
1124 4560 1059 1339 -52 2501 -262 4279 -770 154 -44 281 -79 282 -78 1 2 -67
1165 -105 1777 -27 438 -47 863 -66 1405 -21 642 -22 657 -36 666 -11 7 -735
151 -994 199 -1100 200 -2226 332 -3320 391 -264 14 -1350 20 -1590 9z"/>
<path d="M40478 91860 c-481 -8 -1039 -24 -1443 -40 -1428 -57 -2995 -64
-5196 -24 l-376 7 -7 -1124 c-17 -2845 -70 -5471 -181 -8909 -151 -4666 -356
-8364 -665 -11955 -22 -253 -43 -482 -46 -509 l-6 -49 383 7 c1622 28 1636 28
2921 10 692 -10 1261 -14 1265 -10 4 3 71 2820 149 6259 l143 6252 130 3313
c72 1823 131 3320 131 3328 0 12 85 14 568 15 312 0 770 4 1017 9 1021 21
1803 23 2105 6 434 -24 872 -68 1153 -116 517 -89 963 -273 1342 -555 585
-436 891 -1007 997 -1865 20 -160 16 -667 -6 -855 -77 -662 -284 -1243 -631
-1775 -457 -701 -1080 -1157 -1996 -1461 -675 -224 -1448 -320 -2234 -279
-425 22 -869 76 -1315 159 -85 16 -156 28 -157 27 -6 -6 502 -1166 665 -1516
122 -263 1773 -3940 2099 -4675 257 -579 631 -1434 766 -1750 47 -110 451
-1174 898 -2364 l814 -2164 390 6 c1847 31 2224 32 3828 6 389 -7 710 -10 712
-7 5 5 -268 592 -542 1163 -71 149 -472 934 -890 1745 -418 811 -877 1702
-1018 1980 -390 765 -1249 2479 -1442 2880 -179 371 -1193 2546 -1193 2559 0
4 179 62 398 129 755 231 1322 420 1622 539 600 239 1061 518 1509 912 169
148 494 478 622 631 729 871 1223 2018 1398 3245 61 428 76 648 75 1160 0 538
-19 788 -95 1223 -226 1309 -832 2332 -1854 3133 -560 438 -1220 766 -1928
958 -503 137 -1232 236 -2252 306 -510 36 -1708 51 -2627 35z"/>
<path d="M77266 91819 c-3 -8 -7 -718 -10 -1579 -2 -861 -9 -1767 -15 -2015
-6 -247 -18 -738 -26 -1090 -68 -2848 -223 -7599 -340 -10385 -119 -2828 -210
-4298 -425 -6869 -28 -327 -50 -601 -50 -609 0 -16 -11 -16 1785 9 577 8 945
7 1755 -6 564 -8 1103 -15 1198 -15 l172 0 0 408 c1 402 0 417 -57 1177 l-57
770 87 3644 c48 2005 88 3646 90 3647 2 2 674 21 1252 34 1454 33 3938 38
5195 11 927 -21 1378 -31 1621 -37 l247 -7 6 184 c3 101 11 360 16 574 18 667
57 1641 95 2340 8 149 15 296 15 328 l0 58 -1122 -4 c-618 -2 -1838 -9 -2713
-16 l-1590 -13 -1420 27 c-781 15 -1422 30 -1425 32 -5 5 169 5857 176 5891
l5 23 3642 -4 3642 -3 1015 -42 c558 -22 1051 -42 1095 -43 l80 -2 7 239 c20
718 70 1703 144 2837 14 219 24 400 22 402 -2 2 -539 0 -1193 -5 l-1190 -9
-2040 54 -2040 53 -3670 6 c-2018 3 -3739 9 -3822 12 -126 6 -153 5 -157 -7z"/>
<path d="M95670 91094 c-1 -2267 -76 -5535 -245 -10584 -136 -4055 -242 -6405
-380 -8390 -56 -793 -206 -2735 -219 -2829 l-5 -34 517 7 c284 3 834 11 1222
17 559 8 912 7 1705 -6 550 -8 1075 -15 1168 -15 l167 0 0 403 c1 396 0 414
-57 1175 l-58 773 134 3647 c74 2006 135 3648 135 3648 1 1 190 7 421 13 1591
43 2576 54 4160 48 1330 -5 1625 -10 3000 -42 347 -8 656 -15 688 -15 l57 0 0
153 c0 468 89 2752 126 3245 l6 83 -1129 -4 c-620 -2 -1841 -9 -2713 -16
l-1585 -13 -1425 27 c-784 15 -1426 29 -1428 30 -3 3 163 5507 174 5763 l6
153 3672 -4 3671 -5 1067 -43 1066 -44 6 185 c32 961 63 1587 131 2660 14 217
29 448 33 513 4 65 5 120 1 122 -3 2 -541 0 -1195 -5 l-1189 -9 -2040 54
-2040 54 -3660 5 c-2013 3 -3729 9 -3812 12 l-153 7 0 -739z"/>
<path d="M114240 91743 c1 -38 5 -468 10 -958 18 -1776 -23 -4084 -130 -7395
-131 -4024 -317 -8178 -540 -12035 -54 -928 -118 -2000 -124 -2054 l-4 -44
462 7 c1985 29 1892 28 3129 10 658 -9 1200 -14 1203 -11 4 3 10 293 15 644
101 7706 289 13837 584 19043 52 913 167 2741 178 2834 l4 29 -496 -7 c-273
-3 -775 -11 -1116 -17 -477 -7 -867 -6 -1690 6 -588 8 -1163 15 -1277 15
l-208 0 0 -67z"/>
<path d="M60690 91673 c0 -12 -235 -558 -493 -1143 -656 -1493 -1475 -3277
-2442 -5320 -183 -387 -4023 -8545 -4288 -9110 -1165 -2485 -2534 -5305 -3264
-6719 l-64 -124 428 7 c1789 28 1871 28 3226 10 806 -10 1331 -14 1336 -8 5 5
100 232 211 504 957 2345 1962 4712 2993 7050 l174 395 3906 3 3905 2 17 -47
c588 -1701 1537 -4737 2025 -6478 100 -357 253 -927 315 -1175 25 -102 51
-203 56 -224 l11 -39 396 6 c1677 28 1975 29 3147 12 638 -9 1185 -15 1216
-13 l56 3 -309 875 c-247 701 -771 2268 -2627 7860 l-2318 6985 -1053 3337
c-579 1835 -1056 3342 -1060 3349 -6 8 -142 8 -561 0 -1306 -27 -2833 -25
-4566 6 -254 4 -373 3 -373 -4z m3670 -7148 c638 -2079 1163 -3788 1166 -3797
5 -17 -135 -18 -2845 -18 -1568 0 -2851 3 -2851 6 0 3 501 1134 1113 2512 612
1379 1367 3093 1678 3808 385 888 566 1297 571 1285 5 -9 530 -1717 1168
-3796z"/>
<path d="M70000 63149 c-1033 -51 -1858 -480 -2357 -1224 -248 -369 -398 -792
-460 -1293 -24 -190 -23 -595 1 -787 33 -270 99 -550 182 -772 136 -367 371
-726 623 -950 447 -398 943 -606 1621 -679 190 -21 626 -23 820 -5 441 41 910
140 1268 267 l72 26 0 1349 0 1349 -925 0 -925 0 0 -290 0 -290 570 0 570 0 0
-840 0 -841 -47 -20 c-193 -83 -627 -138 -993 -126 -284 10 -499 46 -729 123
-571 190 -992 601 -1206 1178 -70 190 -123 434 -146 670 -15 156 -6 576 15
714 77 508 270 916 576 1222 390 391 908 594 1570 617 441 15 894 -60 1251
-207 40 -17 74 -29 76 -27 11 12 172 582 166 587 -15 14 -189 78 -294 109
-376 109 -862 162 -1299 140z"/>
<path d="M58250 63134 c-251 -12 -490 -28 -665 -45 -195 -19 -487 -54 -532
-64 l-23 -5 0 -2759 0 -2759 28 -6 c38 -8 342 -33 572 -47 318 -20 1030 -17
1235 4 733 77 1269 254 1700 561 490 350 839 905 989 1577 120 535 114 1190
-15 1685 -134 519 -432 977 -834 1285 -412 316 -937 494 -1650 559 -114 10
-673 20 -805 14z m710 -585 c852 -78 1462 -474 1740 -1131 129 -306 182 -604
182 -1023 -1 -922 -303 -1593 -897 -1990 -444 -297 -1012 -420 -1781 -387
-148 6 -308 17 -356 23 l-88 12 0 2218 c0 2103 1 2218 18 2223 74 24 436 62
657 70 127 4 401 -3 525 -15z"/>
<path d="M112700 63133 c-340 -12 -896 -72 -1012 -109 -17 -5 -18 -145 -18
-2764 l0 -2760 23 -5 c34 -8 302 -33 492 -46 234 -17 912 -17 1095 -1 724 65
1182 232 1495 547 205 205 342 458 406 748 26 118 37 412 20 540 -35 261 -133
486 -300 691 -166 203 -435 381 -720 476 -64 22 -117 43 -118 47 -2 5 38 26
88 47 184 78 368 205 505 347 234 245 347 523 347 859 0 286 -68 514 -215 728
-102 146 -328 332 -527 431 -355 179 -856 250 -1561 224z m744 -582 c513 -92
788 -355 825 -788 45 -521 -287 -903 -884 -1015 -97 -18 -161 -21 -548 -25
l-437 -5 2 908 3 908 75 13 c142 24 285 31 565 29 234 -3 300 -7 399 -25z
m-25 -2410 c320 -58 554 -163 728 -325 99 -92 160 -175 209 -281 144 -312 117
-750 -62 -1021 -169 -255 -457 -415 -884 -490 -178 -31 -913 -29 -996 3 -12 4
-14 168 -14 1075 l0 1070 448 -4 c411 -4 457 -6 571 -27z"/>
<path d="M35115 63087 c-3 -7 -4 -145 -3 -307 l3 -295 853 -3 852 -2 0 -2500
0 -2500 365 0 365 0 0 2500 0 2500 860 0 860 0 0 310 0 310 -2075 0 c-1661 0
-2077 -3 -2080 -13z"/>
<path d="M41357 63093 c-4 -3 -7 -1268 -7 -2810 l0 -2803 365 0 365 0 0 1320
0 1320 1358 -2 1357 -3 3 -1317 2 -1318 365 0 365 0 0 2810 0 2810 -365 0
-365 0 0 -1175 0 -1175 -1360 0 -1360 0 -2 1173 -3 1172 -356 3 c-195 1 -358
-1 -362 -5z"/>
<path d="M48247 63093 c-4 -3 -7 -1268 -7 -2810 l0 -2803 1580 0 1580 0 0 305
0 305 -1215 0 -1215 0 0 1015 0 1015 1090 0 1090 0 0 295 0 295 -1090 0 -1090
0 0 890 0 890 1155 0 1155 0 -2 303 -3 302 -1511 3 c-831 1 -1514 -1 -1517 -5z"/>
<path d="M64047 63093 c-4 -3 -7 -1268 -7 -2810 l0 -2803 365 0 365 0 -2 2808
-3 2807 -356 3 c-195 1 -358 -1 -362 -5z"/>
<path d="M74337 63093 c-4 -3 -7 -1268 -7 -2810 l0 -2803 365 0 365 0 -2 2808
-3 2807 -356 3 c-195 1 -358 -1 -362 -5z"/>
<path d="M77145 63087 c-3 -7 -4 -145 -3 -307 l3 -295 853 -3 852 -2 0 -2500
0 -2500 365 0 365 0 0 2500 0 2500 860 0 860 0 0 310 0 310 -2075 0 c-1661 0
-2077 -3 -2080 -13z"/>
<path d="M84231 63078 c-4 -13 -432 -1270 -950 -2795 -517 -1524 -944 -2778
-947 -2787 -6 -14 31 -16 370 -16 l375 0 70 213 c38 118 169 516 291 885 l222
672 994 0 c936 0 994 -1 1002 -17 5 -10 141 -408 303 -885 l294 -868 387 0
387 0 -85 248 c-46 136 -478 1399 -958 2807 l-874 2560 -436 3 -436 2 -9 -22z
m494 -858 c100 -389 176 -631 480 -1523 162 -478 295 -873 295 -878 0 -9
-1672 -13 -1682 -4 -2 3 116 362 264 797 326 963 401 1203 528 1708 34 133 38
146 49 133 4 -4 34 -109 66 -233z"/>
<path d="M89317 63093 c-4 -3 -7 -1268 -7 -2810 l0 -2803 1565 0 1565 0 0 305
0 305 -1200 0 -1200 0 -2 2503 -3 2502 -356 3 c-195 1 -358 -1 -362 -5z"/>
<path d="M97937 63093 c-4 -3 -7 -1268 -7 -2810 l0 -2803 365 0 365 0 0 1320
0 1320 1358 -2 1357 -3 3 -1317 2 -1318 365 0 365 0 0 2810 0 2810 -365 0
-365 0 0 -1175 0 -1175 -1360 0 -1360 0 -2 1173 -3 1172 -356 3 c-195 1 -358
-1 -362 -5z"/>
<path d="M104820 61323 c0 -1098 4 -1824 10 -1898 28 -336 89 -622 185 -870
222 -576 627 -943 1200 -1090 218 -56 337 -69 620 -69 336 0 529 28 790 115
454 151 795 440 1028 869 128 236 227 570 271 914 33 250 37 523 34 2171 l-3
1630 -362 3 -363 2 0 -1657 c0 -966 -4 -1737 -10 -1847 -31 -591 -174 -1000
-445 -1271 -219 -218 -491 -328 -851 -342 -421 -17 -757 123 -995 413 -150
184 -265 447 -323 739 -52 260 -50 166 -56 2130 l-5 1830 -362 3 -363 2 0
-1777z"/>
</g>
</svg>
