 <svg  version="1.0" xmlns="http://www.w3.org/2000/svg"  width="244.000000pt" height="282.000000pt" viewBox="0 0 244.000000 282.000000"  preserveAspectRatio="xMidYMid meet">  <g transform="translate(0.000000,282.000000) scale(0.100000,-0.100000)" fill="#1032e0" stroke="none"> <path d="M17 2803 c-4 -3 -7 -28 -7 -54 l0 -47 73 -7 c92 -8 158 -29 187 -60 44 -46 50 -111 50 -527 l0 -388 170 0 170 0 0 413 c0 258 4 426 11 450 18 67 83 91 277 103 194 11 417 -27 576 -100 386 -177 581 -591 511 -1086 -39 -275 -138 -485 -306 -652 -151 -149 -308 -225 -534 -258 -38 -5 -89 -10 -112 -10 -33 0 -43 -4 -43 -16 0 -14 9 -16 73 -10 39 4 99 9 132 12 102 9 276 42 370 69 198 57 346 143 486 284 135 135 213 263 268 443 42 135 55 233 54 393 -1 236 -50 405 -169 586 -175 265 -444 403 -886 453 -109 13 -259 16 -741 16 -332 0 -607 -3 -610 -7z"/> <path d="M576 1438 c-3 -62 -9 -157 -13 -211 l-6 -98 34 3 c32 3 34 5 57 83 14 44 36 98 51 120 39 58 75 68 261 69 l155 1 2 -385 c1 -212 5 -385 10 -385 39 0 185 30 191 39 4 6 8 173 8 371 l1 360 129 3 c147 3 222 -9 263 -44 29 -24 63 -96 85 -181 12 -44 15 -48 41 -46 15 1 30 5 33 8 3 3 0 71 -6 153 -7 81 -12 171 -12 200 0 47 -2 52 -22 52 -12 0 -35 -12 -51 -27 l-28 -28 -534 -2 -535 -3 -34 30 c-18 17 -43 30 -54 30 -18 0 -20 -9 -26 -112z"/> <path d="M1250 524 c-36 -7 -82 -15 -102 -19 l-36 -6 -4 -179 c-3 -171 -4 -180 -26 -203 -24 -26 -71 -41 -154 -52 -45 -6 -48 -8 -48 -36 l0 -29 340 0 340 0 0 29 c0 28 -3 29 -52 36 -102 13 -144 31 -180 78 0 1 -4 90 -7 197 l-6 196 -65 -12z"/> </g> </svg> 